<svg width="14" height="14" viewBox="0 0 14 14" fill="none" xmlns="http://www.w3.org/2000/svg">
<g id="ArrowRight">
<path id="Vector" d="M12.122 7.30953L8.18453 11.247C8.10244 11.3291 7.9911 11.3752 7.875 11.3752C7.7589 11.3752 7.64756 11.3291 7.56547 11.247C7.48338 11.1649 7.43726 11.0536 7.43726 10.9375C7.43726 10.8214 7.48338 10.7101 7.56547 10.628L10.7565 7.4375H2.1875C2.07147 7.4375 1.96019 7.39141 1.87814 7.30936C1.79609 7.22731 1.75 7.11603 1.75 7C1.75 6.88397 1.79609 6.77269 1.87814 6.69064C1.96019 6.60859 2.07147 6.5625 2.1875 6.5625H10.7565L7.56547 3.37203C7.48338 3.28994 7.43726 3.1786 7.43726 3.0625C7.43726 2.9464 7.48338 2.83506 7.56547 2.75297C7.64756 2.67088 7.7589 2.62476 7.875 2.62476C7.9911 2.62476 8.10244 2.67088 8.18453 2.75297L12.122 6.69047C12.1627 6.7311 12.195 6.77935 12.217 6.83246C12.239 6.88557 12.2503 6.9425 12.2503 7C12.2503 7.05749 12.239 7.11442 12.217 7.16754C12.195 7.22065 12.1627 7.2689 12.122 7.30953Z" fill="white"/>
</g>
</svg>
