<svg width="22" height="22" viewBox="0 0 22 22" fill="none" xmlns="http://www.w3.org/2000/svg">
<path d="M18.5446 10.1552C18.5186 10.045 18.4657 9.94296 18.3908 9.85811C18.3158 9.77326 18.2211 9.70823 18.1149 9.6688L13.1641 7.81169L14.4239 1.5099C14.4524 1.36348 14.4326 1.21175 14.3673 1.07761C14.302 0.943478 14.1949 0.83421 14.0621 0.766297C13.9293 0.698385 13.778 0.675514 13.631 0.701136C13.484 0.726757 13.3494 0.799481 13.2474 0.908334L3.62242 11.2208C3.54424 11.3032 3.48769 11.4037 3.45781 11.5132C3.42794 11.6228 3.42566 11.738 3.4512 11.8487C3.47674 11.9593 3.52928 12.0619 3.60415 12.1473C3.67901 12.2327 3.77387 12.2982 3.88023 12.338L8.83281 14.1951L7.5764 20.4901C7.54787 20.6365 7.56774 20.7882 7.63301 20.9223C7.69828 21.0565 7.8054 21.1657 7.93822 21.2337C8.07104 21.3016 8.22234 21.3244 8.3693 21.2988C8.51625 21.2732 8.65089 21.2005 8.75288 21.0916L18.3779 10.7791C18.4546 10.6967 18.51 10.5967 18.5391 10.488C18.5681 10.3792 18.57 10.2649 18.5446 10.1552ZM9.39913 18.3906L10.2989 13.8892C10.3311 13.7295 10.3056 13.5637 10.2269 13.4211C10.1482 13.2785 10.0214 13.1685 9.86921 13.1106L5.32828 11.4047L12.6003 3.61365L11.7014 8.11505C11.6692 8.2747 11.6947 8.44059 11.7734 8.58318C11.8521 8.72577 11.9789 8.83579 12.1311 8.89365L16.6686 10.5952L9.39913 18.3906Z" fill="#275DEA"/>
</svg>
