<svg width="17" height="17" viewBox="0 0 17 17" fill="none" xmlns="http://www.w3.org/2000/svg">
<path d="M15.096 2.29254C14.9624 2.16688 14.7956 2.077 14.6128 2.03218C14.43 1.98736 14.2378 1.98921 14.0561 2.03754H14.0461L1.30009 5.67754C1.09261 5.7337 0.908229 5.84802 0.771499 6.00526C0.634769 6.16251 0.552179 6.35523 0.534728 6.55776C0.517276 6.76029 0.565791 6.96301 0.673812 7.13894C0.781833 7.31487 0.944235 7.45565 1.13939 7.54254L6.82509 10.0769L9.51787 15.4282C9.60288 15.5995 9.73822 15.7444 9.90789 15.8458C10.0776 15.9471 10.2745 16.0006 10.4754 16C10.506 16 10.5365 15.9988 10.5671 15.9963C10.7815 15.98 10.9855 15.9023 11.1517 15.7737C11.3179 15.6451 11.4383 15.4718 11.4968 15.2769L15.3616 3.28067C15.3616 3.27754 15.3616 3.27442 15.3616 3.27129C15.4136 3.10065 15.4165 2.92004 15.3698 2.74803C15.3231 2.57602 15.2286 2.41881 15.096 2.29254ZM10.4814 14.9907L10.4781 14.9994L7.86435 9.80629L11.0014 6.85317C11.0968 6.75864 11.1492 6.63276 11.1474 6.50238C11.1457 6.372 11.0899 6.24743 10.9919 6.15523C10.8939 6.06303 10.7616 6.01049 10.623 6.00882C10.4845 6.00715 10.3508 6.05648 10.2503 6.14629L7.11263 9.09879L1.59427 6.63879H1.60357L14.3443 3.00004L10.4814 14.9907Z" fill="#275DEA"/>
</svg>
