<svg width="22" height="22" viewBox="0 0 22 22" fill="none" xmlns="http://www.w3.org/2000/svg">
<g id="RocketLaunch">
<path id="Vector" d="M8.9184 15.9792C8.88488 16.1124 8.04699 19.25 3.43816 19.25C3.25583 19.25 3.08096 19.1776 2.95203 19.0486C2.8231 18.9197 2.75066 18.7448 2.75066 18.5625C2.75066 13.9537 5.88824 13.1158 6.02144 13.0823C6.19842 13.038 6.38572 13.0659 6.54213 13.1598C6.69854 13.2537 6.81125 13.4059 6.85547 13.5828C6.89968 13.7598 6.87178 13.9471 6.77791 14.1035C6.68403 14.2599 6.53186 14.3726 6.35488 14.4169C6.27754 14.4383 4.42816 14.9789 4.15832 17.8423C7.02176 17.5725 7.56316 15.7266 7.58551 15.6406C7.63109 15.4639 7.74502 15.3125 7.90224 15.2197C8.05945 15.127 8.24707 15.1005 8.42383 15.146C8.60058 15.1916 8.75198 15.3056 8.84473 15.4628C8.93748 15.62 8.96398 15.8076 8.9184 15.9844V15.9792ZM16.9106 10.187L16.5007 10.5969V15.6097C16.5017 15.7909 16.4667 15.9706 16.3976 16.1382C16.3286 16.3058 16.2269 16.458 16.0985 16.5859L13.1491 19.5336C13.0219 19.6617 12.8706 19.7633 12.7039 19.8326C12.5373 19.902 12.3585 19.9376 12.178 19.9375C12.029 19.9374 11.881 19.9134 11.7397 19.8662C11.4971 19.7859 11.2818 19.6394 11.1181 19.4432C10.9544 19.247 10.8488 19.0089 10.8133 18.7558L10.3518 15.4481L6.55254 11.6488L3.24652 11.1873C2.99313 11.1518 2.75468 11.0463 2.558 10.8826C2.36131 10.7189 2.2142 10.5036 2.1332 10.2609C2.05221 10.0182 2.04055 9.75769 2.09953 9.50871C2.15851 9.25972 2.2858 9.03214 2.46707 8.85155L5.41473 5.90218C5.54267 5.77377 5.69486 5.67209 5.86246 5.60304C6.03006 5.534 6.20971 5.49897 6.39097 5.49999H11.4037L11.8136 5.09007C14.1064 2.79811 16.8693 2.69929 17.9504 2.76374C18.2856 2.78411 18.6018 2.92646 18.8393 3.16394C19.0768 3.40141 19.2191 3.71758 19.2395 4.0528C19.3022 5.13132 19.2034 7.89421 16.9114 10.187H16.9106ZM3.43816 9.82608L6.63074 10.2712L10.0287 6.87499H6.39097L3.43816 9.82608ZM7.84847 11L11.0007 14.1522L15.9378 9.21507C16.6031 8.55421 17.1193 7.75858 17.4516 6.88166C17.784 6.00474 17.9247 5.06685 17.8645 4.131C16.9291 4.073 15.9922 4.21525 15.1162 4.54825C14.2402 4.88124 13.4453 5.39733 12.7847 6.06202L7.84847 11ZM15.1257 11.9719L11.7286 15.3691L12.1754 18.5625L15.1257 15.6097V11.9719Z" fill="#275DEA"/>
</g>
</svg>
