<svg width="22" height="23" viewBox="0 0 22 23" fill="none" xmlns="http://www.w3.org/2000/svg">
<g id="Sparkle">
<path id="Vector" d="M16.9796 11.5911L12.5444 9.95828L10.9115 5.51961C10.8148 5.25692 10.6399 5.03022 10.4103 4.87008C10.1807 4.70995 9.90755 4.62408 9.62763 4.62408C9.34772 4.62408 9.07454 4.70995 8.84495 4.87008C8.61536 5.03022 8.44042 5.25692 8.34373 5.51961L6.7092 9.95313L2.27052 11.5859C2.00784 11.6826 1.78113 11.8576 1.621 12.0872C1.46086 12.3167 1.375 12.5899 1.375 12.8698C1.375 13.1498 1.46086 13.4229 1.621 13.6525C1.78113 13.8821 2.00784 14.0571 2.27052 14.1538L6.70318 15.7969L8.33599 20.233C8.43269 20.4957 8.60763 20.7224 8.83722 20.8825C9.0668 21.0426 9.33998 21.1285 9.6199 21.1285C9.89982 21.1285 10.173 21.0426 10.4026 20.8825C10.6322 20.7224 10.8071 20.4957 10.9038 20.233L12.5366 15.7977L16.9753 14.1649C17.238 14.0682 17.4647 13.8933 17.6248 13.6637C17.785 13.4341 17.8708 13.1609 17.8708 12.881C17.8708 12.6011 17.785 12.3279 17.6248 12.0983C17.4647 11.8687 17.238 11.6938 16.9753 11.5971L16.9796 11.5911ZM12.0648 14.5078C11.879 14.576 11.7103 14.6838 11.5704 14.8238C11.4304 14.9637 11.3226 15.1324 11.2544 15.3182L9.62162 19.7405L7.99224 15.3148C7.924 15.13 7.81653 14.9621 7.67723 14.8228C7.53793 14.6835 7.3701 14.5761 7.18529 14.5078L2.76295 12.875L7.18529 11.2422C7.3701 11.1739 7.53793 11.0665 7.67723 10.9272C7.81653 10.7879 7.924 10.62 7.99224 10.4352L9.62506 6.01289L11.2579 10.4352C11.3261 10.621 11.4339 10.7897 11.5738 10.9297C11.7137 11.0696 11.8825 11.1774 12.0683 11.2456L16.4906 12.8784L12.0648 14.5078ZM12.3751 3.9375C12.3751 3.75516 12.4475 3.5803 12.5764 3.45136C12.7054 3.32243 12.8802 3.25 13.0626 3.25H14.4376V1.875C14.4376 1.69266 14.51 1.5178 14.6389 1.38886C14.7679 1.25993 14.9427 1.1875 15.1251 1.1875C15.3074 1.1875 15.4823 1.25993 15.6112 1.38886C15.7401 1.5178 15.8126 1.69266 15.8126 1.875V3.25H17.1876C17.3699 3.25 17.5448 3.32243 17.6737 3.45136C17.8026 3.5803 17.8751 3.75516 17.8751 3.9375C17.8751 4.11984 17.8026 4.2947 17.6737 4.42364C17.5448 4.55257 17.3699 4.625 17.1876 4.625H15.8126V6C15.8126 6.18234 15.7401 6.3572 15.6112 6.48614C15.4823 6.61507 15.3074 6.6875 15.1251 6.6875C14.9427 6.6875 14.7679 6.61507 14.6389 6.48614C14.51 6.3572 14.4376 6.18234 14.4376 6V4.625H13.0626C12.8802 4.625 12.7054 4.55257 12.5764 4.42364C12.4475 4.2947 12.3751 4.11984 12.3751 3.9375ZM21.3126 8.0625C21.3126 8.24484 21.2401 8.4197 21.1112 8.54864C20.9823 8.67757 20.8074 8.75 20.6251 8.75H19.9376V9.4375C19.9376 9.61984 19.8651 9.79471 19.7362 9.92364C19.6073 10.0526 19.4324 10.125 19.2501 10.125C19.0677 10.125 18.8929 10.0526 18.7639 9.92364C18.635 9.79471 18.5626 9.61984 18.5626 9.4375V8.75H17.8751C17.6927 8.75 17.5179 8.67757 17.3889 8.54864C17.26 8.4197 17.1876 8.24484 17.1876 8.0625C17.1876 7.88016 17.26 7.7053 17.3889 7.57636C17.5179 7.44743 17.6927 7.375 17.8751 7.375H18.5626V6.6875C18.5626 6.50516 18.635 6.3303 18.7639 6.20136C18.8929 6.07243 19.0677 6 19.2501 6C19.4324 6 19.6073 6.07243 19.7362 6.20136C19.8651 6.3303 19.9376 6.50516 19.9376 6.6875V7.375H20.6251C20.8074 7.375 20.9823 7.44743 21.1112 7.57636C21.2401 7.7053 21.3126 7.88016 21.3126 8.0625Z" fill="#275DEA"/>
</g>
</svg>
