<svg width="30" height="31" viewBox="0 0 30 31" fill="none" xmlns="http://www.w3.org/2000/svg">
<g id="Spinner">
<path id="Vector" d="M15.9375 4.25V8C15.9375 8.24864 15.8387 8.4871 15.6629 8.66291C15.4871 8.83873 15.2486 8.9375 15 8.9375C14.7514 8.9375 14.5129 8.83873 14.3371 8.66291C14.1613 8.4871 14.0625 8.24864 14.0625 8V4.25C14.0625 4.00136 14.1613 3.7629 14.3371 3.58709C14.5129 3.41127 14.7514 3.3125 15 3.3125C15.2486 3.3125 15.4871 3.41127 15.6629 3.58709C15.8387 3.7629 15.9375 4.00136 15.9375 4.25ZM20.3027 11.1348C20.426 11.1347 20.548 11.1104 20.6618 11.0631C20.7756 11.0158 20.879 10.9466 20.966 10.8594L23.618 8.20859C23.7939 8.03268 23.8927 7.79409 23.8927 7.54531C23.8927 7.29653 23.7939 7.05794 23.618 6.88203C23.4421 6.70612 23.2035 6.60729 22.9547 6.60729C22.7059 6.60729 22.4673 6.70612 22.2914 6.88203L19.6406 9.53398C19.5094 9.66503 19.4201 9.83203 19.3838 10.0139C19.3475 10.1957 19.366 10.3842 19.4368 10.5556C19.5077 10.7269 19.6278 10.8734 19.7819 10.9765C19.9361 11.0796 20.1173 11.1347 20.3027 11.1348ZM26.25 14.5625H22.5C22.2514 14.5625 22.0129 14.6613 21.8371 14.8371C21.6613 15.0129 21.5625 15.2514 21.5625 15.5C21.5625 15.7486 21.6613 15.9871 21.8371 16.1629C22.0129 16.3387 22.2514 16.4375 22.5 16.4375H26.25C26.4986 16.4375 26.7371 16.3387 26.9129 16.1629C27.0887 15.9871 27.1875 15.7486 27.1875 15.5C27.1875 15.2514 27.0887 15.0129 26.9129 14.8371C26.7371 14.6613 26.4986 14.5625 26.25 14.5625ZM20.966 20.1406C20.7888 19.9722 20.5528 19.8797 20.3083 19.8829C20.0638 19.886 19.8303 19.9845 19.6574 20.1574C19.4845 20.3303 19.386 20.5638 19.3829 20.8083C19.3797 21.0528 19.4722 21.2888 19.6406 21.466L22.2914 24.118C22.4673 24.2939 22.7059 24.3927 22.9547 24.3927C23.2035 24.3927 23.4421 24.2939 23.618 24.118C23.7939 23.9421 23.8927 23.7035 23.8927 23.4547C23.8927 23.2059 23.7939 22.9673 23.618 22.7914L20.966 20.1406ZM15 22.0625C14.7514 22.0625 14.5129 22.1613 14.3371 22.3371C14.1613 22.5129 14.0625 22.7514 14.0625 23V26.75C14.0625 26.9986 14.1613 27.2371 14.3371 27.4129C14.5129 27.5887 14.7514 27.6875 15 27.6875C15.2486 27.6875 15.4871 27.5887 15.6629 27.4129C15.8387 27.2371 15.9375 26.9986 15.9375 26.75V23C15.9375 22.7514 15.8387 22.5129 15.6629 22.3371C15.4871 22.1613 15.2486 22.0625 15 22.0625ZM9.03398 20.1406L6.38203 22.7914C6.20612 22.9673 6.10729 23.2059 6.10729 23.4547C6.10729 23.7035 6.20612 23.9421 6.38203 24.118C6.55794 24.2939 6.79653 24.3927 7.04531 24.3927C7.29409 24.3927 7.53268 24.2939 7.70859 24.118L10.3594 21.466C10.5278 21.2888 10.6203 21.0528 10.6171 20.8083C10.614 20.5638 10.5155 20.3303 10.3426 20.1574C10.1697 19.9845 9.93617 19.886 9.69171 19.8829C9.44725 19.8797 9.21123 19.9722 9.03398 20.1406ZM8.4375 15.5C8.4375 15.2514 8.33873 15.0129 8.16291 14.8371C7.9871 14.6613 7.74864 14.5625 7.5 14.5625H3.75C3.50136 14.5625 3.2629 14.6613 3.08709 14.8371C2.91127 15.0129 2.8125 15.2514 2.8125 15.5C2.8125 15.7486 2.91127 15.9871 3.08709 16.1629C3.2629 16.3387 3.50136 16.4375 3.75 16.4375H7.5C7.74864 16.4375 7.9871 16.3387 8.16291 16.1629C8.33873 15.9871 8.4375 15.7486 8.4375 15.5ZM7.70859 6.88203C7.53268 6.70612 7.29409 6.60729 7.04531 6.60729C6.79653 6.60729 6.55794 6.70612 6.38203 6.88203C6.20612 7.05794 6.10729 7.29653 6.10729 7.54531C6.10729 7.79409 6.20612 8.03268 6.38203 8.20859L9.03398 10.8594C9.21123 11.0278 9.44725 11.1203 9.69171 11.1171C9.93617 11.114 10.1697 11.0155 10.3426 10.8426C10.5155 10.6697 10.614 10.4362 10.6171 10.1917C10.6203 9.94725 10.5278 9.71123 10.3594 9.53398L7.70859 6.88203Z" fill="white"/>
</g>
</svg>
