<svg width="30" height="31" viewBox="0 0 30 31" fill="none" xmlns="http://www.w3.org/2000/svg">
<g id="StarFour">
<path id="Vector" d="M26.8944 13.7421L19.4612 11.0467L16.7577 3.60534C16.6245 3.24651 16.3847 2.93703 16.0704 2.71849C15.7562 2.49995 15.3826 2.38281 14.9999 2.38281C14.6171 2.38281 14.2435 2.49995 13.9293 2.71849C13.6151 2.93703 13.3753 3.24651 13.2421 3.60534L10.5467 11.0385L3.10534 13.7421C2.74651 13.8753 2.43703 14.1151 2.21849 14.4293C1.99995 14.7435 1.88281 15.1171 1.88281 15.4999C1.88281 15.8826 1.99995 16.2562 2.21849 16.5704C2.43703 16.8847 2.74651 17.1245 3.10534 17.2577L10.5385 19.953L13.2421 27.3944C13.3753 27.7532 13.6151 28.0627 13.9293 28.2813C14.2435 28.4998 14.6171 28.6169 14.9999 28.6169C15.3826 28.6169 15.7562 28.4998 16.0704 28.2813C16.3847 28.0627 16.6245 27.7532 16.7577 27.3944L19.4612 19.96L26.8944 17.2577C27.2532 17.1245 27.5627 16.8847 27.7813 16.5704C27.9998 16.2562 28.1169 15.8826 28.1169 15.4999C28.1169 15.1171 27.9998 14.7435 27.7813 14.4293C27.5627 14.1151 27.2532 13.8753 26.8944 13.7421ZM18.8167 18.1952C18.5602 18.2889 18.3272 18.4375 18.1341 18.6306C17.941 18.8237 17.7924 19.0566 17.6987 19.3132L14.9999 26.7382L12.3046 19.3167C12.2109 19.0591 12.062 18.8253 11.8682 18.6315C11.6745 18.4377 11.4406 18.2888 11.1831 18.1952L3.76159 15.4999L11.1831 12.8046C11.4406 12.7109 11.6745 12.562 11.8682 12.3682C12.062 12.1745 12.2109 11.9406 12.3046 11.6831L14.9999 4.26159L17.6952 11.6831C17.7889 11.9396 17.9375 12.1726 18.1306 12.3657C18.3237 12.5588 18.5566 12.7074 18.8132 12.801L26.2346 15.4964L18.8167 18.1952Z" fill="white"/>
</g>
</svg>
