<svg width="18" height="17" viewBox="0 0 18 17" fill="none" xmlns="http://www.w3.org/2000/svg">
<path d="M14.9873 13.5162C15.1156 13.645 15.1876 13.8195 15.1876 14.0013C15.1876 14.1831 15.1156 14.3576 14.9873 14.4864C14.8936 14.5784 12.6798 16.75 9 16.75C5.7868 16.75 3.45445 14.825 2.125 13.3254V15.375C2.125 15.5573 2.05257 15.7322 1.92364 15.8611C1.7947 15.9901 1.61984 16.0625 1.4375 16.0625C1.25516 16.0625 1.0803 15.9901 0.951364 15.8611C0.822433 15.7322 0.75 15.5573 0.75 15.375V11.25C0.75 11.0677 0.822433 10.8928 0.951364 10.7639C1.0803 10.6349 1.25516 10.5625 1.4375 10.5625H5.5625C5.74484 10.5625 5.9197 10.6349 6.04864 10.7639C6.17757 10.8928 6.25 11.0677 6.25 11.25C6.25 11.4323 6.17757 11.6072 6.04864 11.7361C5.9197 11.8651 5.74484 11.9375 5.5625 11.9375H2.76437C3.82312 13.2566 5.99219 15.375 9 15.375C12.0938 15.375 13.9964 13.5308 14.0153 13.5119C14.1448 13.3836 14.3199 13.312 14.5022 13.3128C14.6844 13.3136 14.8589 13.3868 14.9873 13.5162ZM16.5625 0.9375C16.3802 0.9375 16.2053 1.00993 16.0764 1.13886C15.9474 1.2678 15.875 1.44266 15.875 1.625V3.67461C14.5455 2.175 12.2132 0.25 9 0.25C5.32016 0.25 3.10641 2.42164 3.01359 2.51359C2.88436 2.64237 2.81158 2.81721 2.81126 2.99964C2.81094 3.18208 2.8831 3.35718 3.01187 3.48641C3.14065 3.61564 3.31549 3.68842 3.49793 3.68874C3.68036 3.68906 3.85546 3.6169 3.98469 3.48813C4.00359 3.46922 5.90625 1.625 9 1.625C12.0078 1.625 14.1769 3.74336 15.2356 5.0625H12.4375C12.2552 5.0625 12.0803 5.13493 11.9514 5.26386C11.8224 5.3928 11.75 5.56766 11.75 5.75C11.75 5.93234 11.8224 6.1072 11.9514 6.23614C12.0803 6.36507 12.2552 6.4375 12.4375 6.4375H16.5625C16.7448 6.4375 16.9197 6.36507 17.0486 6.23614C17.1776 6.1072 17.25 5.93234 17.25 5.75V1.625C17.25 1.44266 17.1776 1.2678 17.0486 1.13886C16.9197 1.00993 16.7448 0.9375 16.5625 0.9375Z" fill="#275DEA"/>
</svg>
