<svg width="18" height="17" viewBox="0 0 18 17" fill="none" xmlns="http://www.w3.org/2000/svg">
<path d="M9 3C7.73915 3 6.50661 3.35189 5.45824 4.01118C4.40988 4.67047 3.59278 5.60754 3.11027 6.7039C2.62776 7.80026 2.50152 9.00666 2.7475 10.1705C2.99348 11.3344 3.60064 12.4035 4.4922 13.2426C5.38376 14.0818 6.51967 14.6532 7.7563 14.8847C8.99293 15.1162 10.2747 14.9974 11.4396 14.5433C12.6045 14.0892 13.6001 13.3201 14.3006 12.3334C15.0011 11.3467 15.375 10.1867 15.375 9C15.3731 7.40926 14.7008 5.88419 13.5057 4.75937C12.3105 3.63454 10.6902 3.00182 9 3ZM9 14C7.94929 14 6.92217 13.7068 6.04854 13.1573C5.1749 12.6079 4.49398 11.827 4.09189 10.9134C3.6898 9.99979 3.5846 8.99445 3.78958 8.02455C3.99457 7.05464 4.50053 6.16373 5.2435 5.46447C5.98646 4.7652 6.93306 4.289 7.96359 4.09607C8.99411 3.90315 10.0623 4.00216 11.033 4.3806C12.0037 4.75904 12.8334 5.3999 13.4172 6.22215C14.0009 7.04439 14.3125 8.01109 14.3125 9C14.3109 10.3256 13.7507 11.5965 12.7548 12.5339C11.7588 13.4712 10.4085 13.9985 9 14ZM12.0321 6.14625C12.0815 6.19269 12.1207 6.24783 12.1474 6.30853C12.1742 6.36923 12.1879 6.43429 12.1879 6.5C12.1879 6.56571 12.1742 6.63077 12.1474 6.69147C12.1207 6.75217 12.0815 6.80731 12.0321 6.85375L9.37586 9.35375C9.3265 9.40021 9.26791 9.43705 9.20342 9.4622C9.13893 9.48734 9.06981 9.50028 9 9.50028C8.9302 9.50028 8.86108 9.48734 8.79659 9.4622C8.7321 9.43705 8.6735 9.40021 8.62414 9.35375C8.57478 9.30729 8.53563 9.25214 8.50892 9.19145C8.48221 9.13075 8.46846 9.0657 8.46846 9C8.46846 8.9343 8.48221 8.86925 8.50892 8.80855C8.53563 8.74786 8.57478 8.6927 8.62414 8.64625L11.2804 6.14625C11.3297 6.09976 11.3883 6.06288 11.4528 6.03772C11.5173 6.01256 11.5864 5.99961 11.6563 5.99961C11.7261 5.99961 11.7952 6.01256 11.8597 6.03772C11.9242 6.06288 11.9828 6.09976 12.0321 6.14625ZM6.875 1.5C6.875 1.36739 6.93097 1.24021 7.0306 1.14645C7.13023 1.05268 7.26536 1 7.40625 1H10.5938C10.7346 1 10.8698 1.05268 10.9694 1.14645C11.069 1.24021 11.125 1.36739 11.125 1.5C11.125 1.63261 11.069 1.75979 10.9694 1.85355C10.8698 1.94732 10.7346 2 10.5938 2H7.40625C7.26536 2 7.13023 1.94732 7.0306 1.85355C6.93097 1.75979 6.875 1.63261 6.875 1.5Z" fill="#275DEA"/>
</svg>
